<?xml version="1.0" standalone="no"?>
<!DOCTYPE svg PUBLIC "-//W3C//DTD SVG 20010904//EN"
 "http://www.w3.org/TR/2001/REC-SVG-20010904/DTD/svg10.dtd">
<svg version="1.0" xmlns="http://www.w3.org/2000/svg"
 width="1024.000000pt" height="1024.000000pt" viewBox="0 0 1024.000000 1024.000000"
 preserveAspectRatio="xMidYMid meet">

<g transform="translate(0.000000,1024.000000) scale(0.100000,-0.100000)"
fill="#000000" stroke="none">
<path d="M3868 6133 l-3 -778 -100 -5 -100 -5 -1 -246 c0 -224 -2 -249 -20
-279 -27 -46 -65 -71 -115 -77 -62 -6 -108 20 -136 77 -22 42 -23 55 -23 290
l0 245 -112 -3 -113 -3 5 -297 5 -297 27 -55 c36 -73 82 -116 151 -140 131
-46 256 -5 328 108 22 35 30 41 35 29 3 -10 3 -25 0 -34 -4 -9 -4 -36 0 -60
l6 -43 84 0 84 0 0 -585 0 -585 1403 2 1402 3 3 363 2 362 -1035 0 -1035 0 2
212 3 211 57 13 c56 13 133 47 172 77 19 14 18 17 -35 95 -46 68 -56 78 -69
67 -38 -32 -101 -55 -153 -55 -73 0 -132 32 -174 94 -29 43 -33 56 -33 115 1
137 80 221 207 221 48 0 124 -28 137 -49 4 -6 11 -11 15 -11 6 0 71 89 114
158 12 18 -131 84 -194 90 l-49 5 0 773 0 774 -370 0 -370 0 -2 -777z"/>
<path d="M5864 5701 c-45 -28 -70 -97 -54 -145 15 -47 71 -86 123 -86 32 0 46
7 78 39 33 32 39 45 39 79 0 23 -5 51 -11 64 -27 59 -119 85 -175 49z"/>
<path d="M2380 5085 l0 -525 330 0 331 0 -3 98 -3 97 -212 3 -213 2 0 425 0
425 -115 0 -115 0 0 -525z"/>
<path d="M5413 5352 c-51 -20 -93 -57 -130 -114 l-28 -42 -7 40 c-4 21 -10 56
-13 77 l-6 37 -94 0 -95 0 0 -395 0 -395 115 0 115 0 0 226 c0 254 6 290 57
334 28 25 42 30 86 30 33 0 68 -8 92 -20 21 -11 39 -19 40 -17 32 49 105 203
101 213 -7 17 -99 44 -150 43 -23 0 -60 -8 -83 -17z"/>
<path d="M6540 5360 c-77 -16 -165 -66 -216 -123 -151 -167 -147 -411 10 -571
123 -126 321 -157 491 -77 104 50 102 45 49 126 -62 93 -58 90 -91 68 -68 -48
-154 -56 -223 -20 -196 99 -133 407 83 407 49 0 109 -20 138 -46 15 -13 21 -8
68 57 29 39 55 77 57 83 6 15 -72 63 -132 81 -63 20 -177 27 -234 15z"/>
<path d="M7260 5354 c-106 -29 -209 -117 -258 -222 -25 -52 -27 -68 -27 -177
l0 -120 39 -73 c131 -245 446 -293 642 -98 144 144 164 362 50 532 -95 140
-274 204 -446 158z m190 -203 c59 -31 92 -88 98 -169 5 -83 -8 -130 -51 -179
-55 -63 -127 -79 -195 -44 -179 91 -126 411 68 411 25 0 61 -8 80 -19z"/>
<path d="M5818 5322 c-2 -18 -5 -197 -7 -397 l-3 -365 116 0 116 0 0 394 0
395 -109 3 -109 3 -4 -33z"/>
</g>
</svg>
